<svg width="104" height="80" fill="none" xmlns="http://www.w3.org/2000/svg"><path d="M63.466 32.957h0l-.005.008-.142.258h0c-2.688 4.92-4.041 10.397-4.041 16.462 0 8.863 1.881 15.882 5.512 21.18 3.483 4.99 9.335 7.635 17.973 7.635 5.392 0 9.431-1.657 12.32-4.833l.002-.003-31.62-40.707zm0 0c2.848-5.202 6.301-9.817 10.36-13.853 4.193-4.164 8.632-7.69 13.317-10.582a571.411 571.411 0 0110.742-6.498l3.992 6.3c-4.265 2.35-7.785 4.427-10.55 6.233-3.135 1.947-6.292 4.537-9.473 7.75l-.001.001-.001.002M63.466 32.956l18.386-10.648m0 0c-3.114 3.153-5.51 6.44-7.156 9.87l-.003.005h0m7.159-9.874l-7.159 9.874m0 0l-.003.007m.003-.008l-.003.008m0 0l-.003.007h0m.003-.007l-.004.008m0 0c-1.546 3.347-2.615 7.655-3.25 12.869l-.137 1.12-.068.561m3.455-14.55l-3.455 14.55m0 0h.565m-.565 0h.565m0 0h8.624c6.228 0 10.893 1.473 14.184 4.233v.001M71.797 46.75l22.808 4.234m0 0l.012.01h0m-.011-.01l.01.01m0 0l.01.007m-.01-.007l.01.007m0 0l.012.01h.001m-.013-.01l.013.01m0 0c3.309 2.611 5.051 6.516 5.051 11.984m-5.05-11.983l5.05 11.983m0 0c0 3.695-1.473 7.241-4.602 10.668l4.602-10.668zM24.075 22.308h0l-.002.003c-3.014 3.058-5.356 6.296-6.999 9.72-1.656 3.449-2.78 7.812-3.416 13.037l-.136 1.12-.069.561h9.19c6.227 0 10.892 1.473 14.183 4.233l.01.01.006.004.005.004.012.01h.002c3.308 2.611 5.05 6.516 5.05 11.984 0 3.696-1.474 7.243-4.604 10.67h0l-.002.003a.059.059 0 01-.004.003c-2.888 3.174-6.926 4.83-12.316 4.83-8.637 0-14.49-2.646-17.973-7.635C3.382 65.567 1.5 58.548 1.5 49.685c0-6.065 1.353-11.542 4.04-16.462h.001l.143-.258.003-.007.001-.001c2.848-5.202 6.302-9.817 10.36-13.853 4.193-4.164 8.632-7.69 13.317-10.582a571.335 571.335 0 0110.743-6.498l3.991 6.3c-4.265 2.35-7.785 4.427-10.55 6.233-3.136 1.947-6.292 4.538-9.474 7.751z" stroke="#DADEDF"/></svg>